<svg id="color" enable-background="new 0 0 24 24" height="512" viewBox="0 0 24 24" width="512" xmlns="http://www.w3.org/2000/svg"><path d="m21 1h-18c-1.654 0-3 1.346-3 3v16c0 1.654 1.346 3 3 3h18c1.654 0 3-1.346 3-3v-16c0-1.654-1.346-3-3-3z" fill="#607d8b"/><path d="m21 21h-18c-.551 0-1-.448-1-1v-14h20v14c0 .552-.449 1-1 1z" fill="#fff"/><path d="m18.431 17h-12.862c-.865 0-1.569-.704-1.569-1.569v-5.862c0-.865.704-1.569 1.569-1.569h12.862c.865 0 1.569.704 1.569 1.569v5.862c0 .865-.704 1.569-1.569 1.569z" fill="#e53935"/><path d="m10.25 15.5c-.414 0-.75-.337-.75-.751v-4.509c0-.559.688-.935 1.156-.632l3.5 2.254c.215.138.344.374.344.632 0 .257-.129.494-.346.632l-3.499 2.254c-.12.078-.26.12-.405.12z" fill="#fff"/><path d="m19 20h-14c-.552 0-1-.448-1-1s.448-1 1-1h14c.552 0 1 .448 1 1s-.448 1-1 1z" fill="#b0bec5"/><path d="m12 1h-9c-1.654 0-3 1.346-3 3v16c0 1.654 1.346 3 3 3h9v-2h-9c-.551 0-1-.448-1-1v-14h10z" fill="#546d79"/><path d="m12 6h-10v14c0 .552.449 1 1 1h9v-1h-7c-.552 0-1-.448-1-1s.448-1 1-1h7v-1h-6.431c-.865 0-1.569-.704-1.569-1.569v-5.862c0-.865.704-1.569 1.569-1.569h6.431z" fill="#dedede"/><path d="m12 8h-6.431c-.865 0-1.569.704-1.569 1.569v5.862c0 .865.704 1.569 1.569 1.569h6.431v-2.486l-1.344.866c-.121.078-.261.12-.406.12-.414 0-.75-.337-.75-.751v-4.509c0-.422.392-.74.785-.74.128 0 .256.034.371.108l1.344.866z" fill="#c7322e"/><path d="m10.285 9.5c-.393 0-.785.318-.785.739v4.509c0 .415.336.751.75.751.145 0 .285-.042.406-.12l1.344-.865v-4.041l-1.344-.866c-.115-.073-.243-.107-.371-.107z" fill="#dedede"/><path d="m12 18h-7c-.552 0-1 .448-1 1s.448 1 1 1h7z" fill="#99a5ac"/></svg>